HIERARCHY
ROOT joint_Root
{
	OFFSET 0.0 0.0 0.0
	CHANNELS 6 Xposition Yposition Zposition Zrotation Xrotation Yrotation 
	JOINT Hips
	{
		OFFSET -17.1583 93.1646 452.98
		CHANNELS 6 Xposition Yposition Zposition Zrotation Xrotation Yrotation 
		JOINT Spine
		{
			OFFSET 15.7357 0.0 0.0
			CHANNELS 6 Xposition Yposition Zposition Zrotation Xrotation Yrotation 
			JOINT Chest
			{
				OFFSET 8.98455 -0.406207 0.0
				CHANNELS 6 Xposition Yposition Zposition Zrotation Xrotation Yrotation 
				JOINT Neck
				{
					OFFSET 16.3773 0.0 0.0
					CHANNELS 6 Xposition Yposition Zposition Zrotation Xrotation Yrotation 
					JOINT Head
					{
						OFFSET 6.45672 0.0 0.0
						CHANNELS 6 Xposition Yposition Zposition Zrotation Xrotation Yrotation 
						End Site
						{
							OFFSET 0.0 0.0 0.0
						}
					}
				}
				JOINT Shoulder_L
				{
					OFFSET 12.9942 -0.242716 4.98039
					CHANNELS 6 Xposition Yposition Zposition Zrotation Xrotation Yrotation 
					JOINT UpperArm_L
					{
						OFFSET 5.34809 0.0 0.0
						CHANNELS 6 Xposition Yposition Zposition Zrotation Xrotation Yrotation 
						JOINT LowerArm_L
						{
							OFFSET 24.3286 1.87007e-05 0.0
							CHANNELS 6 Xposition Yposition Zposition Zrotation Xrotation Yrotation 
							JOINT Hand_L
							{
								OFFSET 22.2916 0.0 0.0
								CHANNELS 6 Xposition Yposition Zposition Zrotation Xrotation Yrotation 
								End Site
								{
									OFFSET 0.0 0.0 0.0
								}
							}
						}
					}
				}
				JOINT Shoulder_R
				{
					OFFSET 12.9945 -0.242716 -4.98039
					CHANNELS 6 Xposition Yposition Zposition Zrotation Xrotation Yrotation 
					JOINT UpperArm_R
					{
						OFFSET -5.34813 0.0 0.0
						CHANNELS 6 Xposition Yposition Zposition Zrotation Xrotation Yrotation 
						JOINT LowerArm_R
						{
							OFFSET -24.3289 0.000322201 0.0
							CHANNELS 6 Xposition Yposition Zposition Zrotation Xrotation Yrotation 
							JOINT Hand_R
							{
								OFFSET -22.2915 -0.000108084 0.0
								CHANNELS 6 Xposition Yposition Zposition Zrotation Xrotation Yrotation 
								End Site
								{
									OFFSET 0.0 0.0 0.0
								}
							}
						}
					}
				}
			}
		}
		JOINT UpperLeg_L
		{
			OFFSET -2.19248 -6.46944 0.0
			CHANNELS 6 Xposition Yposition Zposition Zrotation Xrotation Yrotation 
			JOINT LowerLeg_L
			{
				OFFSET 39.0811 0.0 -1.23785e-05
				CHANNELS 6 Xposition Yposition Zposition Zrotation Xrotation Yrotation 
				JOINT Foot_L
				{
					OFFSET 40.9854 0.0 -1.26872e-05
					CHANNELS 6 Xposition Yposition Zposition Zrotation Xrotation Yrotation 
					JOINT Toes_L
					{
						OFFSET 11.7543 0.0 0.0
						CHANNELS 6 Xposition Yposition Zposition Zrotation Xrotation Yrotation 
						End Site
						{
							OFFSET 0.0 0.0 0.0
						}
					}
				}
			}
		}
		JOINT UpperLeg_R
		{
			OFFSET -2.19251 6.46944 0.0
			CHANNELS 6 Xposition Yposition Zposition Zrotation Xrotation Yrotation 
			JOINT LowerLeg_R
			{
				OFFSET -39.0811 -0.00228153 -0.0401928
				CHANNELS 6 Xposition Yposition Zposition Zrotation Xrotation Yrotation 
				JOINT Foot_R
				{
					OFFSET -40.9854 0.0 0.0
					CHANNELS 6 Xposition Yposition Zposition Zrotation Xrotation Yrotation 
					JOINT Toes_R
					{
						OFFSET -11.7543 0.0 0.0
						CHANNELS 6 Xposition Yposition Zposition Zrotation Xrotation Yrotation 
						End Site
						{
							OFFSET 0.0 0.0 0.0
						}
					}
				}
			}
		}
	}
}
MOTION
Frames:	5
Frame Time:	0.0333333
0.000000 0.000000 0.000000 0.000000 0.000000 -0.000000 -0.696260 92.908000 507.599000 -84.473800 -4.010870 177.372000 15.735700 0.000005 -0.000001 45.474300 84.127700 -41.637600 8.984550 -0.406207 -0.000000 0.916303 -8.461880 7.746510 16.377300 -0.000001 -0.000001 1.534250 4.740500 -2.654060 6.456720 -0.000001 -0.000000 -11.315500 9.453200 -0.531237 12.994200 -0.242716 4.980390 -91.711400 6.145540 -74.405900 5.348090 -0.000007 -0.000001 -55.172000 9.725910 -28.471900 24.328600 0.000019 0.000005 19.886400 26.834100 -38.706700 22.291600 -0.000001 0.000005 7.252700 5.061860 5.973170 12.994500 -0.242716 -4.980390 90.279100 -0.726593 -68.982800 -5.348130 -0.000001 -0.000004 -46.226000 -9.260230 19.473500 -24.328900 0.000322 -0.000009 0.438560 12.554100 -2.021570 -22.291500 -0.000108 -0.000004 11.397800 5.242200 1.637960 -2.192480 -6.469440 -0.000000 -169.839000 -13.097700 10.864400 39.081100 -0.000007 -0.000012 -0.001328 0.009450 7.995200 40.985400 -0.000006 -0.000013 -3.422660 27.452500 -61.274700 11.754300 -0.000000 0.000003 -0.000386 -0.006266 -16.832000 -2.192510 6.469440 -0.000001 -175.537000 1.648430 149.388000 -39.081100 -0.002282 -0.040193 0.029745 -0.046946 29.390300 -40.985400 0.000008 0.000006 -7.810120 -10.303300 -62.360500 -11.754300 -0.000006 -0.000006 0.000180 0.164578 -9.898260
0.000000 0.000000 0.000000 0.000000 0.000000 -0.000000 -0.435364 92.626000 505.502000 -84.669700 -4.466630 176.886000 15.735700 0.000005 -0.000001 44.253000 84.276500 -40.463400 8.984550 -0.406207 -0.000000 0.523591 -8.435970 7.623420 16.377300 -0.000001 -0.000001 0.608741 4.532840 -2.482700 6.456720 -0.000001 -0.000000 -11.571200 9.007190 -0.754604 12.994200 -0.242716 4.980390 -91.638600 5.974390 -74.632400 5.348090 -0.000007 -0.000001 -54.994500 8.992120 -29.730600 24.328600 0.000019 0.000005 19.259900 21.382500 -43.782200 22.291600 -0.000001 0.000005 3.040890 5.076170 5.654190 12.994500 -0.242716 -4.980390 90.243300 -0.639612 -69.176400 -5.348130 -0.000001 -0.000004 -47.467300 -8.535720 18.740800 -24.328900 0.000322 -0.000009 0.505567 13.225200 -2.213290 -22.291500 -0.000108 -0.000004 9.038310 5.219760 2.219650 -2.192480 -6.469440 -0.000000 -169.953000 -11.663500 10.909100 39.081100 -0.000007 -0.000012 -0.003396 0.021462 8.988800 40.985400 -0.000006 -0.000013 -3.318630 26.376900 -60.955800 11.754300 -0.000000 0.000003 -0.003666 -0.047926 -18.526100 -2.192510 6.469440 -0.000001 -175.421000 2.634680 149.702000 -39.081100 -0.002282 -0.040193 0.025982 -0.048891 24.875800 -40.985400 0.000008 0.000006 -8.380370 -6.853950 -62.728000 -11.754300 -0.000006 -0.000006 0.000310 0.162272 -9.991920
0.000000 0.000000 0.000000 0.000000 0.000000 -0.000000 -0.158601 92.111000 503.042000 -84.784300 -4.803170 176.494000 15.735700 0.000005 -0.000001 42.993900 84.437100 -39.198100 8.984550 -0.406207 -0.000000 0.118406 -8.388810 7.606380 16.377300 -0.000001 -0.000001 -0.055343 4.396880 -2.604760 6.456720 -0.000001 -0.000000 -11.960800 8.647190 -0.954775 12.994200 -0.242716 4.980390 -91.676500 6.095950 -74.591100 5.348090 -0.000007 -0.000001 -54.496500 9.669000 -30.178400 24.328600 0.000019 0.000005 19.557500 17.788600 -49.305200 22.291600 -0.000001 0.000005 2.118880 5.091660 5.304250 12.994500 -0.242716 -4.980390 90.031400 -0.082963 -69.288000 -5.348130 -0.000001 -0.000004 -47.991300 -7.805920 17.520900 -24.328900 0.000322 -0.000009 0.500946 13.973600 -2.077930 -22.291500 -0.000108 -0.000004 5.312650 5.200290 2.712220 -2.192480 -6.469440 -0.000000 -169.883000 -10.637700 11.408800 39.081100 -0.000007 -0.000012 -0.006710 0.037654 10.103300 40.985400 -0.000006 -0.000013 -2.266960 25.318100 -61.515400 11.754300 -0.000000 0.000003 -0.009476 -0.099689 -20.637900 -2.192510 6.469440 -0.000001 -175.379000 2.963800 149.598000 -39.081100 -0.002282 -0.040193 0.021746 -0.043296 23.058600 -40.985400 0.000008 0.000006 -8.961810 -4.461720 -63.738300 -11.754300 -0.000006 -0.000006 0.000067 0.166539 -9.818660
0.000000 0.000000 0.000000 0.000000 0.000000 -0.000000 0.140323 91.421500 500.152000 -84.860800 -5.052290 176.139000 15.735700 0.000005 -0.000001 41.535900 84.628700 -37.704000 8.984550 -0.406207 -0.000000 -0.348386 -8.310670 7.645130 16.377300 -0.000001 -0.000001 -0.580093 4.373380 -2.803220 6.456720 -0.000001 -0.000000 -12.168600 8.405120 -1.321610 12.994200 -0.242716 4.980390 -91.743800 6.300250 -74.494600 5.348090 -0.000007 -0.000001 -54.805200 11.042500 -29.345800 24.328600 0.000019 0.000005 22.041200 16.368400 -55.159200 22.291600 -0.000001 0.000005 4.312290 5.128340 4.457330 12.994500 -0.242716 -4.980390 89.739800 0.691481 -69.380000 -5.348130 -0.000001 -0.000004 -48.236200 -7.451040 15.952000 -24.328900 0.000322 -0.000009 0.357009 14.003700 -1.479250 -22.291500 -0.000108 -0.000004 3.412330 5.203220 2.638340 -2.192480 -6.469440 -0.000000 -169.565000 -10.147900 12.321900 39.081100 -0.000007 -0.000012 -0.010087 0.051257 11.132000 40.985400 -0.000006 -0.000013 -0.993172 24.690700 -62.163000 11.754300 -0.000000 0.000003 -0.017912 -0.155446 -22.924100 -2.192510 6.469440 -0.000001 -175.282000 2.971990 149.142000 -39.081100 -0.002282 -0.040193 0.017935 -0.032990 23.902700 -40.985400 0.000008 0.000006 -9.131060 -3.869900 -65.567700 -11.754300 -0.000006 -0.000006 -0.000147 0.170101 -9.673990
0.000000 0.000000 0.000000 0.000000 0.000000 -0.000000 0.490240 90.582900 496.774000 -84.919900 -5.148080 175.913000 15.735700 0.000005 -0.000001 39.975900 84.854200 -36.108100 8.984550 -0.406207 -0.000000 -0.865072 -8.176080 7.681040 16.377300 -0.000001 -0.000001 -0.906208 4.300310 -3.022190 6.456720 -0.000001 -0.000000 -12.342500 8.229460 -1.650660 12.994200 -0.242716 4.980390 -91.933000 6.825310 -74.146100 5.348090 -0.000007 -0.000001 -55.984500 12.898100 -27.242300 24.328600 0.000019 0.000005 24.873700 15.320400 -60.321300 22.291600 -0.000001 0.000005 8.026100 5.139870 4.185740 12.994500 -0.242716 -4.980390 89.356300 1.717070 -69.445100 -5.348130 -0.000001 -0.000004 -48.748300 -6.114890 14.031500 -24.328900 0.000322 -0.000009 0.151460 13.850900 -0.636940 -22.291500 -0.000108 -0.000004 4.714220 5.195770 2.824830 -2.192480 -6.469440 -0.000000 -169.005000 -10.032600 13.508900 39.081100 -0.000007 -0.000012 -0.012834 0.057843 12.509800 40.985400 -0.000006 -0.000013 0.047768 24.308600 -62.352600 11.754300 -0.000000 0.000003 -0.033624 -0.233631 -26.157600 -2.192510 6.469440 -0.000001 -174.674000 3.945850 148.970000 -39.081100 -0.002282 -0.040193 0.015579 -0.024763 26.357600 -40.985400 0.000008 0.000006 -10.080400 -3.264430 -68.154500 -11.754300 -0.000006 -0.000006 0.000245 0.163443 -9.944370
